<mxfile host="Electron" agent="Mozilla/5.0 (Windows NT 10.0; Win64; x64) AppleWebKit/537.36 (KHTML, like Gecko) draw.io/24.7.8 Chrome/128.0.6613.36 Electron/32.0.1 Safari/537.36" version="24.7.8">
  <diagram id="C5RBs43oDa-KdzZeNtuy" name="Page-1">
    <mxGraphModel dx="4700" dy="3270" grid="1" gridSize="10" guides="1" tooltips="1" connect="1" arrows="1" fold="1" page="0" pageScale="1" pageWidth="827" pageHeight="1169" math="0" shadow="0">
      <root>
        <mxCell id="WIyWlLk6GJQsqaUBKTNV-0" />
        <mxCell id="WIyWlLk6GJQsqaUBKTNV-1" parent="WIyWlLk6GJQsqaUBKTNV-0" />
        <mxCell id="WIyWlLk6GJQsqaUBKTNV-8" value="No" style="rounded=0;html=1;jettySize=auto;orthogonalLoop=1;fontSize=11;endArrow=block;endFill=0;endSize=8;strokeWidth=1;shadow=0;labelBackgroundColor=none;edgeStyle=orthogonalEdgeStyle;" parent="WIyWlLk6GJQsqaUBKTNV-1" target="WIyWlLk6GJQsqaUBKTNV-11" edge="1">
          <mxGeometry x="0.3333" y="20" relative="1" as="geometry">
            <mxPoint as="offset" />
            <mxPoint x="620" y="420" as="sourcePoint" />
          </mxGeometry>
        </mxCell>
        <mxCell id="TOsEn3T-XmHmYIuwWndD-2" style="edgeStyle=orthogonalEdgeStyle;rounded=0;orthogonalLoop=1;jettySize=auto;html=1;" edge="1" parent="WIyWlLk6GJQsqaUBKTNV-1" source="TOsEn3T-XmHmYIuwWndD-0" target="TOsEn3T-XmHmYIuwWndD-1">
          <mxGeometry relative="1" as="geometry" />
        </mxCell>
        <mxCell id="TOsEn3T-XmHmYIuwWndD-0" value="Start" style="ellipse;whiteSpace=wrap;html=1;" vertex="1" parent="WIyWlLk6GJQsqaUBKTNV-1">
          <mxGeometry x="-60" y="-1169" width="120" height="80" as="geometry" />
        </mxCell>
        <mxCell id="TOsEn3T-XmHmYIuwWndD-10" style="edgeStyle=orthogonalEdgeStyle;rounded=0;orthogonalLoop=1;jettySize=auto;html=1;exitX=0.5;exitY=1;exitDx=0;exitDy=0;entryX=0.5;entryY=0;entryDx=0;entryDy=0;" edge="1" parent="WIyWlLk6GJQsqaUBKTNV-1" source="TOsEn3T-XmHmYIuwWndD-1" target="TOsEn3T-XmHmYIuwWndD-3">
          <mxGeometry relative="1" as="geometry" />
        </mxCell>
        <mxCell id="TOsEn3T-XmHmYIuwWndD-1" value="Display name, Phonenumber" style="shape=parallelogram;perimeter=parallelogramPerimeter;whiteSpace=wrap;html=1;fixedSize=1;" vertex="1" parent="WIyWlLk6GJQsqaUBKTNV-1">
          <mxGeometry x="-105" y="-1029" width="210" height="60" as="geometry" />
        </mxCell>
        <mxCell id="TOsEn3T-XmHmYIuwWndD-8" style="edgeStyle=orthogonalEdgeStyle;rounded=0;orthogonalLoop=1;jettySize=auto;html=1;exitX=0.5;exitY=1;exitDx=0;exitDy=0;entryX=0.5;entryY=0;entryDx=0;entryDy=0;" edge="1" parent="WIyWlLk6GJQsqaUBKTNV-1" source="TOsEn3T-XmHmYIuwWndD-3" target="TOsEn3T-XmHmYIuwWndD-7">
          <mxGeometry relative="1" as="geometry" />
        </mxCell>
        <mxCell id="TOsEn3T-XmHmYIuwWndD-3" value="prompt Name" style="shape=parallelogram;perimeter=parallelogramPerimeter;whiteSpace=wrap;html=1;fixedSize=1;" vertex="1" parent="WIyWlLk6GJQsqaUBKTNV-1">
          <mxGeometry x="-105" y="-899" width="210" height="60" as="geometry" />
        </mxCell>
        <mxCell id="TOsEn3T-XmHmYIuwWndD-12" style="edgeStyle=orthogonalEdgeStyle;rounded=0;orthogonalLoop=1;jettySize=auto;html=1;exitX=0.5;exitY=1;exitDx=0;exitDy=0;entryX=0.5;entryY=0;entryDx=0;entryDy=0;" edge="1" parent="WIyWlLk6GJQsqaUBKTNV-1" source="TOsEn3T-XmHmYIuwWndD-7" target="TOsEn3T-XmHmYIuwWndD-11">
          <mxGeometry relative="1" as="geometry" />
        </mxCell>
        <mxCell id="TOsEn3T-XmHmYIuwWndD-7" value="prompt Phone Number" style="shape=parallelogram;perimeter=parallelogramPerimeter;whiteSpace=wrap;html=1;fixedSize=1;" vertex="1" parent="WIyWlLk6GJQsqaUBKTNV-1">
          <mxGeometry x="-105" y="-769" width="210" height="60" as="geometry" />
        </mxCell>
        <mxCell id="TOsEn3T-XmHmYIuwWndD-14" style="edgeStyle=orthogonalEdgeStyle;rounded=0;orthogonalLoop=1;jettySize=auto;html=1;" edge="1" parent="WIyWlLk6GJQsqaUBKTNV-1" source="TOsEn3T-XmHmYIuwWndD-11" target="TOsEn3T-XmHmYIuwWndD-13">
          <mxGeometry relative="1" as="geometry" />
        </mxCell>
        <mxCell id="TOsEn3T-XmHmYIuwWndD-17" style="edgeStyle=orthogonalEdgeStyle;rounded=0;orthogonalLoop=1;jettySize=auto;html=1;entryX=0.5;entryY=0;entryDx=0;entryDy=0;" edge="1" parent="WIyWlLk6GJQsqaUBKTNV-1" source="TOsEn3T-XmHmYIuwWndD-11" target="TOsEn3T-XmHmYIuwWndD-16">
          <mxGeometry relative="1" as="geometry" />
        </mxCell>
        <mxCell id="TOsEn3T-XmHmYIuwWndD-11" value="Name AND Phone number&lt;div&gt;= not null&lt;/div&gt;" style="rhombus;whiteSpace=wrap;html=1;" vertex="1" parent="WIyWlLk6GJQsqaUBKTNV-1">
          <mxGeometry x="-97.5" y="-639" width="197.5" height="150" as="geometry" />
        </mxCell>
        <mxCell id="TOsEn3T-XmHmYIuwWndD-113" value="" style="edgeStyle=orthogonalEdgeStyle;rounded=0;orthogonalLoop=1;jettySize=auto;html=1;" edge="1" parent="WIyWlLk6GJQsqaUBKTNV-1" source="TOsEn3T-XmHmYIuwWndD-13" target="TOsEn3T-XmHmYIuwWndD-112">
          <mxGeometry relative="1" as="geometry" />
        </mxCell>
        <mxCell id="TOsEn3T-XmHmYIuwWndD-13" value="Display (&quot;Please enter both name&lt;div&gt;and Phone Number&quot;)&lt;/div&gt;" style="shape=parallelogram;perimeter=parallelogramPerimeter;whiteSpace=wrap;html=1;fixedSize=1;" vertex="1" parent="WIyWlLk6GJQsqaUBKTNV-1">
          <mxGeometry x="150" y="-594" width="210" height="60" as="geometry" />
        </mxCell>
        <mxCell id="TOsEn3T-XmHmYIuwWndD-15" value="NO" style="text;html=1;align=center;verticalAlign=middle;resizable=0;points=[];autosize=1;strokeColor=none;fillColor=none;" vertex="1" parent="WIyWlLk6GJQsqaUBKTNV-1">
          <mxGeometry x="110" y="-591" width="40" height="30" as="geometry" />
        </mxCell>
        <mxCell id="TOsEn3T-XmHmYIuwWndD-19" style="edgeStyle=orthogonalEdgeStyle;rounded=0;orthogonalLoop=1;jettySize=auto;html=1;" edge="1" parent="WIyWlLk6GJQsqaUBKTNV-1" source="TOsEn3T-XmHmYIuwWndD-16" target="TOsEn3T-XmHmYIuwWndD-18">
          <mxGeometry relative="1" as="geometry" />
        </mxCell>
        <mxCell id="TOsEn3T-XmHmYIuwWndD-16" value="Add contact to phoneBook" style="rounded=0;whiteSpace=wrap;html=1;" vertex="1" parent="WIyWlLk6GJQsqaUBKTNV-1">
          <mxGeometry x="-93.75" y="-459" width="190" height="60" as="geometry" />
        </mxCell>
        <mxCell id="TOsEn3T-XmHmYIuwWndD-22" style="edgeStyle=orthogonalEdgeStyle;rounded=0;orthogonalLoop=1;jettySize=auto;html=1;entryX=0.5;entryY=0;entryDx=0;entryDy=0;" edge="1" parent="WIyWlLk6GJQsqaUBKTNV-1" source="TOsEn3T-XmHmYIuwWndD-18" target="TOsEn3T-XmHmYIuwWndD-21">
          <mxGeometry relative="1" as="geometry" />
        </mxCell>
        <mxCell id="TOsEn3T-XmHmYIuwWndD-18" value="Display (&quot;Contact Added&lt;span style=&quot;background-color: initial;&quot;&gt;&quot;)&lt;/span&gt;" style="shape=parallelogram;perimeter=parallelogramPerimeter;whiteSpace=wrap;html=1;fixedSize=1;" vertex="1" parent="WIyWlLk6GJQsqaUBKTNV-1">
          <mxGeometry x="-105" y="-369" width="210" height="60" as="geometry" />
        </mxCell>
        <mxCell id="TOsEn3T-XmHmYIuwWndD-81" value="" style="edgeStyle=orthogonalEdgeStyle;rounded=0;orthogonalLoop=1;jettySize=auto;html=1;" edge="1" parent="WIyWlLk6GJQsqaUBKTNV-1" source="TOsEn3T-XmHmYIuwWndD-20" target="TOsEn3T-XmHmYIuwWndD-80">
          <mxGeometry relative="1" as="geometry" />
        </mxCell>
        <mxCell id="TOsEn3T-XmHmYIuwWndD-20" value="Sort contacts" style="rounded=1;whiteSpace=wrap;html=1;" vertex="1" parent="WIyWlLk6GJQsqaUBKTNV-1">
          <mxGeometry x="450" y="-229" width="120" height="60" as="geometry" />
        </mxCell>
        <mxCell id="TOsEn3T-XmHmYIuwWndD-31" style="edgeStyle=orthogonalEdgeStyle;rounded=0;orthogonalLoop=1;jettySize=auto;html=1;entryX=0.5;entryY=0;entryDx=0;entryDy=0;" edge="1" parent="WIyWlLk6GJQsqaUBKTNV-1" source="TOsEn3T-XmHmYIuwWndD-21" target="TOsEn3T-XmHmYIuwWndD-25">
          <mxGeometry relative="1" as="geometry" />
        </mxCell>
        <mxCell id="TOsEn3T-XmHmYIuwWndD-32" style="edgeStyle=orthogonalEdgeStyle;rounded=0;orthogonalLoop=1;jettySize=auto;html=1;entryX=0.5;entryY=0;entryDx=0;entryDy=0;" edge="1" parent="WIyWlLk6GJQsqaUBKTNV-1" source="TOsEn3T-XmHmYIuwWndD-21" target="TOsEn3T-XmHmYIuwWndD-24">
          <mxGeometry relative="1" as="geometry" />
        </mxCell>
        <mxCell id="TOsEn3T-XmHmYIuwWndD-33" style="edgeStyle=orthogonalEdgeStyle;rounded=0;orthogonalLoop=1;jettySize=auto;html=1;exitX=0.5;exitY=1;exitDx=0;exitDy=0;" edge="1" parent="WIyWlLk6GJQsqaUBKTNV-1" source="TOsEn3T-XmHmYIuwWndD-21" target="TOsEn3T-XmHmYIuwWndD-26">
          <mxGeometry relative="1" as="geometry">
            <mxPoint y="-199" as="sourcePoint" />
            <Array as="points">
              <mxPoint y="-199" />
              <mxPoint x="194" y="-199" />
            </Array>
          </mxGeometry>
        </mxCell>
        <mxCell id="TOsEn3T-XmHmYIuwWndD-34" style="edgeStyle=orthogonalEdgeStyle;rounded=0;orthogonalLoop=1;jettySize=auto;html=1;" edge="1" parent="WIyWlLk6GJQsqaUBKTNV-1" source="TOsEn3T-XmHmYIuwWndD-21" target="TOsEn3T-XmHmYIuwWndD-23">
          <mxGeometry relative="1" as="geometry">
            <Array as="points">
              <mxPoint y="-199" />
              <mxPoint x="360" y="-199" />
            </Array>
          </mxGeometry>
        </mxCell>
        <mxCell id="TOsEn3T-XmHmYIuwWndD-35" style="edgeStyle=orthogonalEdgeStyle;rounded=0;orthogonalLoop=1;jettySize=auto;html=1;" edge="1" parent="WIyWlLk6GJQsqaUBKTNV-1" source="TOsEn3T-XmHmYIuwWndD-21" target="TOsEn3T-XmHmYIuwWndD-20">
          <mxGeometry relative="1" as="geometry">
            <Array as="points">
              <mxPoint y="-199" />
              <mxPoint x="520" y="-199" />
            </Array>
          </mxGeometry>
        </mxCell>
        <mxCell id="TOsEn3T-XmHmYIuwWndD-21" value="if User clicks" style="rounded=1;whiteSpace=wrap;html=1;" vertex="1" parent="WIyWlLk6GJQsqaUBKTNV-1">
          <mxGeometry x="-60" y="-279" width="120" height="60" as="geometry" />
        </mxCell>
        <mxCell id="TOsEn3T-XmHmYIuwWndD-63" style="edgeStyle=orthogonalEdgeStyle;rounded=0;orthogonalLoop=1;jettySize=auto;html=1;" edge="1" parent="WIyWlLk6GJQsqaUBKTNV-1" source="TOsEn3T-XmHmYIuwWndD-23" target="TOsEn3T-XmHmYIuwWndD-61">
          <mxGeometry relative="1" as="geometry" />
        </mxCell>
        <mxCell id="TOsEn3T-XmHmYIuwWndD-23" value="Update Contact" style="rounded=1;whiteSpace=wrap;html=1;" vertex="1" parent="WIyWlLk6GJQsqaUBKTNV-1">
          <mxGeometry x="300" y="-179" width="120" height="60" as="geometry" />
        </mxCell>
        <mxCell id="TOsEn3T-XmHmYIuwWndD-47" value="" style="edgeStyle=orthogonalEdgeStyle;rounded=0;orthogonalLoop=1;jettySize=auto;html=1;entryX=0.5;entryY=0;entryDx=0;entryDy=0;" edge="1" parent="WIyWlLk6GJQsqaUBKTNV-1" source="TOsEn3T-XmHmYIuwWndD-24" target="TOsEn3T-XmHmYIuwWndD-60">
          <mxGeometry relative="1" as="geometry">
            <mxPoint x="40.00000000000023" y="-99" as="targetPoint" />
          </mxGeometry>
        </mxCell>
        <mxCell id="TOsEn3T-XmHmYIuwWndD-24" value="Delete contact" style="rounded=1;whiteSpace=wrap;html=1;" vertex="1" parent="WIyWlLk6GJQsqaUBKTNV-1">
          <mxGeometry x="-35" y="-179" width="120" height="60" as="geometry" />
        </mxCell>
        <mxCell id="TOsEn3T-XmHmYIuwWndD-30" style="edgeStyle=orthogonalEdgeStyle;rounded=0;orthogonalLoop=1;jettySize=auto;html=1;" edge="1" parent="WIyWlLk6GJQsqaUBKTNV-1" source="TOsEn3T-XmHmYIuwWndD-25" target="TOsEn3T-XmHmYIuwWndD-29">
          <mxGeometry relative="1" as="geometry" />
        </mxCell>
        <mxCell id="TOsEn3T-XmHmYIuwWndD-25" value="Search" style="rounded=1;whiteSpace=wrap;html=1;" vertex="1" parent="WIyWlLk6GJQsqaUBKTNV-1">
          <mxGeometry x="-180" y="-179" width="120" height="60" as="geometry" />
        </mxCell>
        <mxCell id="TOsEn3T-XmHmYIuwWndD-59" style="edgeStyle=orthogonalEdgeStyle;rounded=0;orthogonalLoop=1;jettySize=auto;html=1;exitX=0.5;exitY=1;exitDx=0;exitDy=0;entryX=0.5;entryY=0;entryDx=0;entryDy=0;" edge="1" parent="WIyWlLk6GJQsqaUBKTNV-1" source="TOsEn3T-XmHmYIuwWndD-26" target="TOsEn3T-XmHmYIuwWndD-58">
          <mxGeometry relative="1" as="geometry" />
        </mxCell>
        <mxCell id="TOsEn3T-XmHmYIuwWndD-84" value="" style="edgeStyle=orthogonalEdgeStyle;rounded=0;orthogonalLoop=1;jettySize=auto;html=1;" edge="1" parent="WIyWlLk6GJQsqaUBKTNV-1" source="TOsEn3T-XmHmYIuwWndD-26" target="TOsEn3T-XmHmYIuwWndD-83">
          <mxGeometry relative="1" as="geometry" />
        </mxCell>
        <mxCell id="TOsEn3T-XmHmYIuwWndD-26" value="Display all contact" style="rounded=1;whiteSpace=wrap;html=1;" vertex="1" parent="WIyWlLk6GJQsqaUBKTNV-1">
          <mxGeometry x="134" y="-179" width="120" height="60" as="geometry" />
        </mxCell>
        <mxCell id="TOsEn3T-XmHmYIuwWndD-27" style="edgeStyle=orthogonalEdgeStyle;rounded=0;orthogonalLoop=1;jettySize=auto;html=1;exitX=0.5;exitY=1;exitDx=0;exitDy=0;" edge="1" parent="WIyWlLk6GJQsqaUBKTNV-1" source="TOsEn3T-XmHmYIuwWndD-25" target="TOsEn3T-XmHmYIuwWndD-25">
          <mxGeometry relative="1" as="geometry" />
        </mxCell>
        <mxCell id="TOsEn3T-XmHmYIuwWndD-28" style="edgeStyle=orthogonalEdgeStyle;rounded=0;orthogonalLoop=1;jettySize=auto;html=1;exitX=0.5;exitY=1;exitDx=0;exitDy=0;" edge="1" parent="WIyWlLk6GJQsqaUBKTNV-1" source="TOsEn3T-XmHmYIuwWndD-24" target="TOsEn3T-XmHmYIuwWndD-24">
          <mxGeometry relative="1" as="geometry" />
        </mxCell>
        <mxCell id="TOsEn3T-XmHmYIuwWndD-37" style="edgeStyle=orthogonalEdgeStyle;rounded=0;orthogonalLoop=1;jettySize=auto;html=1;entryX=1;entryY=0.5;entryDx=0;entryDy=0;" edge="1" parent="WIyWlLk6GJQsqaUBKTNV-1" source="TOsEn3T-XmHmYIuwWndD-29" target="TOsEn3T-XmHmYIuwWndD-38">
          <mxGeometry relative="1" as="geometry">
            <mxPoint x="-410" y="-149" as="targetPoint" />
          </mxGeometry>
        </mxCell>
        <mxCell id="TOsEn3T-XmHmYIuwWndD-29" value="prompt Name" style="shape=parallelogram;perimeter=parallelogramPerimeter;whiteSpace=wrap;html=1;fixedSize=1;" vertex="1" parent="WIyWlLk6GJQsqaUBKTNV-1">
          <mxGeometry x="-360" y="-169" width="160" height="40" as="geometry" />
        </mxCell>
        <mxCell id="TOsEn3T-XmHmYIuwWndD-41" style="edgeStyle=orthogonalEdgeStyle;rounded=0;orthogonalLoop=1;jettySize=auto;html=1;entryX=1;entryY=0.5;entryDx=0;entryDy=0;" edge="1" parent="WIyWlLk6GJQsqaUBKTNV-1" source="TOsEn3T-XmHmYIuwWndD-38" target="TOsEn3T-XmHmYIuwWndD-40">
          <mxGeometry relative="1" as="geometry" />
        </mxCell>
        <mxCell id="TOsEn3T-XmHmYIuwWndD-42" value="yes" style="edgeLabel;html=1;align=center;verticalAlign=middle;resizable=0;points=[];" vertex="1" connectable="0" parent="TOsEn3T-XmHmYIuwWndD-41">
          <mxGeometry x="0.0457" y="-2" relative="1" as="geometry">
            <mxPoint as="offset" />
          </mxGeometry>
        </mxCell>
        <mxCell id="TOsEn3T-XmHmYIuwWndD-44" style="edgeStyle=orthogonalEdgeStyle;rounded=0;orthogonalLoop=1;jettySize=auto;html=1;entryX=0.5;entryY=0;entryDx=0;entryDy=0;" edge="1" parent="WIyWlLk6GJQsqaUBKTNV-1" source="TOsEn3T-XmHmYIuwWndD-38" target="TOsEn3T-XmHmYIuwWndD-43">
          <mxGeometry relative="1" as="geometry" />
        </mxCell>
        <mxCell id="TOsEn3T-XmHmYIuwWndD-38" value="Check if contact is found in phoneBook" style="rhombus;whiteSpace=wrap;html=1;" vertex="1" parent="WIyWlLk6GJQsqaUBKTNV-1">
          <mxGeometry x="-560" y="-216.5" width="170" height="135" as="geometry" />
        </mxCell>
        <mxCell id="TOsEn3T-XmHmYIuwWndD-111" value="" style="edgeStyle=orthogonalEdgeStyle;rounded=0;orthogonalLoop=1;jettySize=auto;html=1;" edge="1" parent="WIyWlLk6GJQsqaUBKTNV-1" source="TOsEn3T-XmHmYIuwWndD-40" target="TOsEn3T-XmHmYIuwWndD-110">
          <mxGeometry relative="1" as="geometry" />
        </mxCell>
        <mxCell id="TOsEn3T-XmHmYIuwWndD-40" value="Display contact&#39;s Name and Phone Numbe" style="shape=parallelogram;perimeter=parallelogramPerimeter;whiteSpace=wrap;html=1;fixedSize=1;" vertex="1" parent="WIyWlLk6GJQsqaUBKTNV-1">
          <mxGeometry x="-810" y="-179" width="210" height="60" as="geometry" />
        </mxCell>
        <mxCell id="TOsEn3T-XmHmYIuwWndD-109" value="" style="edgeStyle=orthogonalEdgeStyle;rounded=0;orthogonalLoop=1;jettySize=auto;html=1;" edge="1" parent="WIyWlLk6GJQsqaUBKTNV-1" source="TOsEn3T-XmHmYIuwWndD-43" target="TOsEn3T-XmHmYIuwWndD-107">
          <mxGeometry relative="1" as="geometry" />
        </mxCell>
        <mxCell id="TOsEn3T-XmHmYIuwWndD-43" value="Display &quot;Contact not found&quot;" style="shape=parallelogram;perimeter=parallelogramPerimeter;whiteSpace=wrap;html=1;fixedSize=1;" vertex="1" parent="WIyWlLk6GJQsqaUBKTNV-1">
          <mxGeometry x="-580" y="-49" width="210" height="60" as="geometry" />
        </mxCell>
        <mxCell id="TOsEn3T-XmHmYIuwWndD-45" value="No" style="text;html=1;align=center;verticalAlign=middle;resizable=0;points=[];autosize=1;strokeColor=none;fillColor=none;" vertex="1" parent="WIyWlLk6GJQsqaUBKTNV-1">
          <mxGeometry x="-480" y="-91" width="40" height="30" as="geometry" />
        </mxCell>
        <mxCell id="TOsEn3T-XmHmYIuwWndD-49" value="" style="edgeStyle=orthogonalEdgeStyle;rounded=0;orthogonalLoop=1;jettySize=auto;html=1;exitX=0.5;exitY=1;exitDx=0;exitDy=0;" edge="1" parent="WIyWlLk6GJQsqaUBKTNV-1" source="TOsEn3T-XmHmYIuwWndD-60" target="TOsEn3T-XmHmYIuwWndD-48">
          <mxGeometry relative="1" as="geometry">
            <mxPoint x="40.00000000000023" y="-39" as="sourcePoint" />
          </mxGeometry>
        </mxCell>
        <mxCell id="TOsEn3T-XmHmYIuwWndD-51" value="" style="edgeStyle=orthogonalEdgeStyle;rounded=0;orthogonalLoop=1;jettySize=auto;html=1;" edge="1" parent="WIyWlLk6GJQsqaUBKTNV-1" source="TOsEn3T-XmHmYIuwWndD-48" target="TOsEn3T-XmHmYIuwWndD-50">
          <mxGeometry relative="1" as="geometry" />
        </mxCell>
        <mxCell id="TOsEn3T-XmHmYIuwWndD-54" value="" style="edgeStyle=orthogonalEdgeStyle;rounded=0;orthogonalLoop=1;jettySize=auto;html=1;" edge="1" parent="WIyWlLk6GJQsqaUBKTNV-1" source="TOsEn3T-XmHmYIuwWndD-48" target="TOsEn3T-XmHmYIuwWndD-53">
          <mxGeometry relative="1" as="geometry" />
        </mxCell>
        <mxCell id="TOsEn3T-XmHmYIuwWndD-48" value="Check if contact is found" style="rhombus;whiteSpace=wrap;html=1;rounded=1;" vertex="1" parent="WIyWlLk6GJQsqaUBKTNV-1">
          <mxGeometry x="-65" y="-9" width="180" height="140" as="geometry" />
        </mxCell>
        <mxCell id="TOsEn3T-XmHmYIuwWndD-104" value="" style="edgeStyle=orthogonalEdgeStyle;rounded=0;orthogonalLoop=1;jettySize=auto;html=1;" edge="1" parent="WIyWlLk6GJQsqaUBKTNV-1" source="TOsEn3T-XmHmYIuwWndD-50" target="TOsEn3T-XmHmYIuwWndD-103">
          <mxGeometry relative="1" as="geometry" />
        </mxCell>
        <mxCell id="TOsEn3T-XmHmYIuwWndD-50" value="Remove contact from phoneBook, display &quot;Deleted Contact&quot;" style="whiteSpace=wrap;html=1;rounded=1;" vertex="1" parent="WIyWlLk6GJQsqaUBKTNV-1">
          <mxGeometry x="-35" y="181" width="120" height="60" as="geometry" />
        </mxCell>
        <mxCell id="TOsEn3T-XmHmYIuwWndD-52" value="yes" style="text;html=1;align=center;verticalAlign=middle;resizable=0;points=[];autosize=1;strokeColor=none;fillColor=none;" vertex="1" parent="WIyWlLk6GJQsqaUBKTNV-1">
          <mxGeometry x="40" y="129" width="40" height="30" as="geometry" />
        </mxCell>
        <mxCell id="TOsEn3T-XmHmYIuwWndD-106" value="" style="edgeStyle=orthogonalEdgeStyle;rounded=0;orthogonalLoop=1;jettySize=auto;html=1;" edge="1" parent="WIyWlLk6GJQsqaUBKTNV-1" source="TOsEn3T-XmHmYIuwWndD-53" target="TOsEn3T-XmHmYIuwWndD-105">
          <mxGeometry relative="1" as="geometry" />
        </mxCell>
        <mxCell id="TOsEn3T-XmHmYIuwWndD-53" value="Display &quot;Contact not found&quot;" style="whiteSpace=wrap;html=1;rounded=1;" vertex="1" parent="WIyWlLk6GJQsqaUBKTNV-1">
          <mxGeometry x="-220" y="31" width="120" height="60" as="geometry" />
        </mxCell>
        <mxCell id="TOsEn3T-XmHmYIuwWndD-55" value="No" style="text;html=1;align=center;verticalAlign=middle;resizable=0;points=[];autosize=1;strokeColor=none;fillColor=none;" vertex="1" parent="WIyWlLk6GJQsqaUBKTNV-1">
          <mxGeometry x="-90" y="61" width="40" height="30" as="geometry" />
        </mxCell>
        <mxCell id="TOsEn3T-XmHmYIuwWndD-102" value="" style="edgeStyle=orthogonalEdgeStyle;rounded=0;orthogonalLoop=1;jettySize=auto;html=1;" edge="1" parent="WIyWlLk6GJQsqaUBKTNV-1" source="TOsEn3T-XmHmYIuwWndD-58" target="TOsEn3T-XmHmYIuwWndD-101">
          <mxGeometry relative="1" as="geometry" />
        </mxCell>
        <mxCell id="TOsEn3T-XmHmYIuwWndD-58" value="Display All Contacts" style="shape=parallelogram;perimeter=parallelogramPerimeter;whiteSpace=wrap;html=1;fixedSize=1;" vertex="1" parent="WIyWlLk6GJQsqaUBKTNV-1">
          <mxGeometry x="109" y="20" width="170" height="52.5" as="geometry" />
        </mxCell>
        <mxCell id="TOsEn3T-XmHmYIuwWndD-60" value="Prompt for Name to delete" style="shape=parallelogram;perimeter=parallelogramPerimeter;whiteSpace=wrap;html=1;fixedSize=1;" vertex="1" parent="WIyWlLk6GJQsqaUBKTNV-1">
          <mxGeometry x="-40" y="-91" width="130" height="62" as="geometry" />
        </mxCell>
        <mxCell id="TOsEn3T-XmHmYIuwWndD-65" style="edgeStyle=orthogonalEdgeStyle;rounded=0;orthogonalLoop=1;jettySize=auto;html=1;exitX=0.5;exitY=1;exitDx=0;exitDy=0;entryX=0.5;entryY=0;entryDx=0;entryDy=0;" edge="1" parent="WIyWlLk6GJQsqaUBKTNV-1" source="TOsEn3T-XmHmYIuwWndD-61" target="TOsEn3T-XmHmYIuwWndD-64">
          <mxGeometry relative="1" as="geometry" />
        </mxCell>
        <mxCell id="TOsEn3T-XmHmYIuwWndD-61" value="prompt Name" style="shape=parallelogram;perimeter=parallelogramPerimeter;whiteSpace=wrap;html=1;fixedSize=1;" vertex="1" parent="WIyWlLk6GJQsqaUBKTNV-1">
          <mxGeometry x="290" y="-89.75" width="140" height="50" as="geometry" />
        </mxCell>
        <mxCell id="TOsEn3T-XmHmYIuwWndD-64" value="&lt;div&gt;&lt;br&gt;&lt;/div&gt;&lt;div&gt;Prompt for new Phone Number&lt;/div&gt;&lt;div&gt;&lt;br&gt;&lt;/div&gt;" style="shape=parallelogram;perimeter=parallelogramPerimeter;whiteSpace=wrap;html=1;fixedSize=1;" vertex="1" parent="WIyWlLk6GJQsqaUBKTNV-1">
          <mxGeometry x="282" y="-9" width="156" height="60" as="geometry" />
        </mxCell>
        <mxCell id="TOsEn3T-XmHmYIuwWndD-69" value="" style="edgeStyle=orthogonalEdgeStyle;rounded=0;orthogonalLoop=1;jettySize=auto;html=1;exitX=0.5;exitY=1;exitDx=0;exitDy=0;" edge="1" parent="WIyWlLk6GJQsqaUBKTNV-1" source="TOsEn3T-XmHmYIuwWndD-64" target="TOsEn3T-XmHmYIuwWndD-68">
          <mxGeometry relative="1" as="geometry">
            <mxPoint x="360" y="140" as="sourcePoint" />
          </mxGeometry>
        </mxCell>
        <mxCell id="TOsEn3T-XmHmYIuwWndD-71" value="" style="edgeStyle=orthogonalEdgeStyle;rounded=0;orthogonalLoop=1;jettySize=auto;html=1;" edge="1" parent="WIyWlLk6GJQsqaUBKTNV-1" source="TOsEn3T-XmHmYIuwWndD-68" target="TOsEn3T-XmHmYIuwWndD-70">
          <mxGeometry relative="1" as="geometry" />
        </mxCell>
        <mxCell id="TOsEn3T-XmHmYIuwWndD-73" value="" style="edgeStyle=orthogonalEdgeStyle;rounded=0;orthogonalLoop=1;jettySize=auto;html=1;" edge="1" parent="WIyWlLk6GJQsqaUBKTNV-1" source="TOsEn3T-XmHmYIuwWndD-68" target="TOsEn3T-XmHmYIuwWndD-72">
          <mxGeometry relative="1" as="geometry" />
        </mxCell>
        <mxCell id="TOsEn3T-XmHmYIuwWndD-68" value="&lt;div&gt;&lt;br&gt;&lt;/div&gt;&lt;div&gt;&lt;div&gt;Check if contact is found and new number is NOT empty&lt;/div&gt;&lt;div&gt;&lt;br&gt;&lt;/div&gt;&lt;/div&gt;" style="rhombus;whiteSpace=wrap;html=1;" vertex="1" parent="WIyWlLk6GJQsqaUBKTNV-1">
          <mxGeometry x="290" y="91" width="140" height="140" as="geometry" />
        </mxCell>
        <mxCell id="TOsEn3T-XmHmYIuwWndD-98" value="" style="edgeStyle=orthogonalEdgeStyle;rounded=0;orthogonalLoop=1;jettySize=auto;html=1;" edge="1" parent="WIyWlLk6GJQsqaUBKTNV-1" source="TOsEn3T-XmHmYIuwWndD-70" target="TOsEn3T-XmHmYIuwWndD-97">
          <mxGeometry relative="1" as="geometry" />
        </mxCell>
        <mxCell id="TOsEn3T-XmHmYIuwWndD-70" value="Display &quot;Contact not found or phone number is empty&quot;" style="whiteSpace=wrap;html=1;" vertex="1" parent="WIyWlLk6GJQsqaUBKTNV-1">
          <mxGeometry x="470" y="131" width="120" height="60" as="geometry" />
        </mxCell>
        <mxCell id="TOsEn3T-XmHmYIuwWndD-100" value="" style="edgeStyle=orthogonalEdgeStyle;rounded=0;orthogonalLoop=1;jettySize=auto;html=1;" edge="1" parent="WIyWlLk6GJQsqaUBKTNV-1" source="TOsEn3T-XmHmYIuwWndD-72" target="TOsEn3T-XmHmYIuwWndD-99">
          <mxGeometry relative="1" as="geometry" />
        </mxCell>
        <mxCell id="TOsEn3T-XmHmYIuwWndD-72" value="Update contact&#39;s Phone Number, display &quot;Updated Contact&quot;" style="whiteSpace=wrap;html=1;" vertex="1" parent="WIyWlLk6GJQsqaUBKTNV-1">
          <mxGeometry x="300" y="291" width="120" height="60" as="geometry" />
        </mxCell>
        <mxCell id="TOsEn3T-XmHmYIuwWndD-74" value="Yes" style="text;html=1;align=center;verticalAlign=middle;resizable=0;points=[];autosize=1;strokeColor=none;fillColor=none;" vertex="1" parent="WIyWlLk6GJQsqaUBKTNV-1">
          <mxGeometry x="360" y="219" width="40" height="30" as="geometry" />
        </mxCell>
        <mxCell id="TOsEn3T-XmHmYIuwWndD-75" value="No" style="text;html=1;align=center;verticalAlign=middle;resizable=0;points=[];autosize=1;strokeColor=none;fillColor=none;" vertex="1" parent="WIyWlLk6GJQsqaUBKTNV-1">
          <mxGeometry x="430" y="151" width="40" height="30" as="geometry" />
        </mxCell>
        <mxCell id="TOsEn3T-XmHmYIuwWndD-86" value="" style="edgeStyle=orthogonalEdgeStyle;rounded=0;orthogonalLoop=1;jettySize=auto;html=1;" edge="1" parent="WIyWlLk6GJQsqaUBKTNV-1" source="TOsEn3T-XmHmYIuwWndD-78" target="TOsEn3T-XmHmYIuwWndD-85">
          <mxGeometry relative="1" as="geometry" />
        </mxCell>
        <mxCell id="TOsEn3T-XmHmYIuwWndD-78" value="&lt;div&gt;&lt;br&gt;&lt;/div&gt;&lt;div&gt;Display &quot;Contacts sorted&quot;&lt;/div&gt;&lt;div&gt;&lt;br&gt;&lt;/div&gt;" style="shape=parallelogram;perimeter=parallelogramPerimeter;whiteSpace=wrap;html=1;fixedSize=1;" vertex="1" parent="WIyWlLk6GJQsqaUBKTNV-1">
          <mxGeometry x="740" y="-231" width="180" height="64" as="geometry" />
        </mxCell>
        <mxCell id="TOsEn3T-XmHmYIuwWndD-82" value="" style="edgeStyle=orthogonalEdgeStyle;rounded=0;orthogonalLoop=1;jettySize=auto;html=1;" edge="1" parent="WIyWlLk6GJQsqaUBKTNV-1" source="TOsEn3T-XmHmYIuwWndD-80" target="TOsEn3T-XmHmYIuwWndD-78">
          <mxGeometry relative="1" as="geometry" />
        </mxCell>
        <mxCell id="TOsEn3T-XmHmYIuwWndD-80" value="Call sortContacts()" style="whiteSpace=wrap;html=1;rounded=1;" vertex="1" parent="WIyWlLk6GJQsqaUBKTNV-1">
          <mxGeometry x="590" y="-229" width="120" height="60" as="geometry" />
        </mxCell>
        <mxCell id="TOsEn3T-XmHmYIuwWndD-83" value="Call displayAllContacts()" style="whiteSpace=wrap;html=1;rounded=1;" vertex="1" parent="WIyWlLk6GJQsqaUBKTNV-1">
          <mxGeometry x="134" y="-89" width="120" height="60" as="geometry" />
        </mxCell>
        <mxCell id="TOsEn3T-XmHmYIuwWndD-89" value="" style="edgeStyle=orthogonalEdgeStyle;rounded=0;orthogonalLoop=1;jettySize=auto;html=1;" edge="1" parent="WIyWlLk6GJQsqaUBKTNV-1" source="TOsEn3T-XmHmYIuwWndD-85" target="TOsEn3T-XmHmYIuwWndD-88">
          <mxGeometry relative="1" as="geometry" />
        </mxCell>
        <mxCell id="TOsEn3T-XmHmYIuwWndD-90" value="" style="edgeStyle=orthogonalEdgeStyle;rounded=0;orthogonalLoop=1;jettySize=auto;html=1;" edge="1" parent="WIyWlLk6GJQsqaUBKTNV-1" source="TOsEn3T-XmHmYIuwWndD-85" target="TOsEn3T-XmHmYIuwWndD-87">
          <mxGeometry relative="1" as="geometry" />
        </mxCell>
        <mxCell id="TOsEn3T-XmHmYIuwWndD-85" value="Check if phoneBook is empty" style="rhombus;whiteSpace=wrap;html=1;" vertex="1" parent="WIyWlLk6GJQsqaUBKTNV-1">
          <mxGeometry x="940" y="-239" width="80" height="80" as="geometry" />
        </mxCell>
        <mxCell id="TOsEn3T-XmHmYIuwWndD-94" value="" style="edgeStyle=orthogonalEdgeStyle;rounded=0;orthogonalLoop=1;jettySize=auto;html=1;" edge="1" parent="WIyWlLk6GJQsqaUBKTNV-1" source="TOsEn3T-XmHmYIuwWndD-87" target="TOsEn3T-XmHmYIuwWndD-93">
          <mxGeometry relative="1" as="geometry" />
        </mxCell>
        <mxCell id="TOsEn3T-XmHmYIuwWndD-87" value="&lt;div&gt;Display &quot;No contacts available&quot;&lt;br&gt;&lt;/div&gt;" style="shape=parallelogram;perimeter=parallelogramPerimeter;whiteSpace=wrap;html=1;fixedSize=1;" vertex="1" parent="WIyWlLk6GJQsqaUBKTNV-1">
          <mxGeometry x="1050" y="-229" width="150" height="61" as="geometry" />
        </mxCell>
        <mxCell id="TOsEn3T-XmHmYIuwWndD-96" value="" style="edgeStyle=orthogonalEdgeStyle;rounded=0;orthogonalLoop=1;jettySize=auto;html=1;" edge="1" parent="WIyWlLk6GJQsqaUBKTNV-1" source="TOsEn3T-XmHmYIuwWndD-88" target="TOsEn3T-XmHmYIuwWndD-95">
          <mxGeometry relative="1" as="geometry" />
        </mxCell>
        <mxCell id="TOsEn3T-XmHmYIuwWndD-88" value="&lt;div&gt;Display all contacts with names and phone numbers&lt;br&gt;&lt;/div&gt;" style="shape=parallelogram;perimeter=parallelogramPerimeter;whiteSpace=wrap;html=1;fixedSize=1;" vertex="1" parent="WIyWlLk6GJQsqaUBKTNV-1">
          <mxGeometry x="885" y="-112.75" width="190" height="73" as="geometry" />
        </mxCell>
        <mxCell id="TOsEn3T-XmHmYIuwWndD-91" value="yes" style="text;html=1;align=center;verticalAlign=middle;resizable=0;points=[];autosize=1;strokeColor=none;fillColor=none;" vertex="1" parent="WIyWlLk6GJQsqaUBKTNV-1">
          <mxGeometry x="1020" y="-232" width="40" height="30" as="geometry" />
        </mxCell>
        <mxCell id="TOsEn3T-XmHmYIuwWndD-92" value="No" style="text;html=1;align=center;verticalAlign=middle;resizable=0;points=[];autosize=1;strokeColor=none;fillColor=none;" vertex="1" parent="WIyWlLk6GJQsqaUBKTNV-1">
          <mxGeometry x="970" y="-152" width="40" height="30" as="geometry" />
        </mxCell>
        <mxCell id="TOsEn3T-XmHmYIuwWndD-93" value="End" style="ellipse;whiteSpace=wrap;html=1;" vertex="1" parent="WIyWlLk6GJQsqaUBKTNV-1">
          <mxGeometry x="1240" y="-238.5" width="110" height="80" as="geometry" />
        </mxCell>
        <mxCell id="TOsEn3T-XmHmYIuwWndD-95" value="End" style="ellipse;whiteSpace=wrap;html=1;" vertex="1" parent="WIyWlLk6GJQsqaUBKTNV-1">
          <mxGeometry x="925" y="-7.5" width="110" height="80" as="geometry" />
        </mxCell>
        <mxCell id="TOsEn3T-XmHmYIuwWndD-97" value="End" style="ellipse;whiteSpace=wrap;html=1;" vertex="1" parent="WIyWlLk6GJQsqaUBKTNV-1">
          <mxGeometry x="640" y="121" width="110" height="80" as="geometry" />
        </mxCell>
        <mxCell id="TOsEn3T-XmHmYIuwWndD-99" value="End" style="ellipse;whiteSpace=wrap;html=1;" vertex="1" parent="WIyWlLk6GJQsqaUBKTNV-1">
          <mxGeometry x="305" y="390" width="110" height="80" as="geometry" />
        </mxCell>
        <mxCell id="TOsEn3T-XmHmYIuwWndD-101" value="End" style="ellipse;whiteSpace=wrap;html=1;" vertex="1" parent="WIyWlLk6GJQsqaUBKTNV-1">
          <mxGeometry x="139" y="104" width="110" height="80" as="geometry" />
        </mxCell>
        <mxCell id="TOsEn3T-XmHmYIuwWndD-103" value="End" style="ellipse;whiteSpace=wrap;html=1;" vertex="1" parent="WIyWlLk6GJQsqaUBKTNV-1">
          <mxGeometry x="-30" y="271" width="110" height="80" as="geometry" />
        </mxCell>
        <mxCell id="TOsEn3T-XmHmYIuwWndD-105" value="End" style="ellipse;whiteSpace=wrap;html=1;" vertex="1" parent="WIyWlLk6GJQsqaUBKTNV-1">
          <mxGeometry x="-360" y="20" width="110" height="80" as="geometry" />
        </mxCell>
        <mxCell id="TOsEn3T-XmHmYIuwWndD-107" value="End" style="ellipse;whiteSpace=wrap;html=1;" vertex="1" parent="WIyWlLk6GJQsqaUBKTNV-1">
          <mxGeometry x="-530" y="61" width="110" height="80" as="geometry" />
        </mxCell>
        <mxCell id="TOsEn3T-XmHmYIuwWndD-110" value="End" style="ellipse;whiteSpace=wrap;html=1;" vertex="1" parent="WIyWlLk6GJQsqaUBKTNV-1">
          <mxGeometry x="-960" y="-189" width="110" height="80" as="geometry" />
        </mxCell>
        <mxCell id="TOsEn3T-XmHmYIuwWndD-112" value="End" style="ellipse;whiteSpace=wrap;html=1;" vertex="1" parent="WIyWlLk6GJQsqaUBKTNV-1">
          <mxGeometry x="400" y="-604" width="110" height="80" as="geometry" />
        </mxCell>
      </root>
    </mxGraphModel>
  </diagram>
</mxfile>
